<svg width="16" height="17" viewBox="0 0 16 17" fill="none" xmlns="http://www.w3.org/2000/svg">
<path d="M15.048 2.50325L7.91518 0.0317123C7.79317 -0.0105708 7.66125 -0.0105708 7.53923 0.0317123L0.406421 2.50325C0.288065 2.54426 0.185124 2.62295 0.112181 2.72816C0.0392376 2.83337 -9.24462e-06 2.95978 1.63338e-09 3.08946V9.2683C1.63338e-09 9.43218 0.0626241 9.58934 0.174096 9.70521C0.285568 9.82109 0.436756 9.88619 0.5944 9.88619C0.752045 9.88619 0.903233 9.82109 1.0147 9.70521C1.12618 9.58934 1.1888 9.43218 1.1888 9.2683V3.94678L3.68454 4.81104C3.02145 5.92463 2.8106 7.26624 3.09826 8.54129C3.38593 9.81634 4.14861 10.9206 5.21884 11.6116C3.88143 12.1569 2.72533 13.1432 1.87979 14.4917C1.83582 14.5597 1.80527 14.636 1.78993 14.7163C1.77459 14.7967 1.77477 14.8793 1.79044 14.9596C1.80611 15.0398 1.83697 15.1161 1.88123 15.1838C1.92548 15.2515 1.98225 15.3095 2.04823 15.3542C2.11421 15.3989 2.18809 15.4296 2.26556 15.4444C2.34304 15.4592 2.42257 15.4578 2.49954 15.4404C2.57651 15.4229 2.64937 15.3898 2.7139 15.3428C2.77842 15.2958 2.83333 15.236 2.87541 15.1668C3.99511 13.3811 5.76346 12.3577 7.72721 12.3577C9.69096 12.3577 11.4593 13.3811 12.579 15.1668C12.6662 15.3015 12.8009 15.3951 12.9539 15.4274C13.107 15.4597 13.2661 15.4281 13.3969 15.3394C13.5277 15.2507 13.6197 15.1121 13.6529 14.9534C13.6862 14.7948 13.6581 14.629 13.5746 14.4917C12.7291 13.1432 11.5685 12.1569 10.2356 11.6116C11.3048 10.9206 12.0667 9.81709 12.3544 8.54297C12.642 7.26885 12.4318 5.92816 11.7699 4.8149L15.048 3.67954C15.1664 3.63855 15.2693 3.55988 15.3423 3.45466C15.4153 3.34945 15.4545 3.22303 15.4545 3.09333C15.4545 2.96362 15.4153 2.8372 15.3423 2.73199C15.2693 2.62678 15.1664 2.5481 15.048 2.50711V2.50325ZM11.2936 7.41465C11.2938 8.00076 11.1602 8.57855 10.904 9.10063C10.6477 9.6227 10.2761 10.0742 9.81944 10.418C9.36283 10.7619 8.8343 10.9883 8.27722 11.0787C7.72013 11.169 7.15037 11.1208 6.61467 10.938C6.07898 10.7552 5.59262 10.4429 5.1955 10.0269C4.79838 9.61079 4.50182 9.10278 4.33014 8.5445C4.15847 7.98622 4.11657 7.39359 4.2079 6.81522C4.29922 6.23686 4.52116 5.68924 4.85551 5.2173L7.53923 6.14413C7.66125 6.18641 7.79317 6.18641 7.91518 6.14413L10.5989 5.2173C11.0504 5.85374 11.2939 6.62384 11.2936 7.41465ZM7.72721 4.9099L2.47419 3.08946L7.72721 1.26902L12.9802 3.08946L7.72721 4.9099Z" fill="#003A6E"/>
<circle cx="11.5909" cy="13.1364" r="3.86364" fill="white"/>
<path d="M10.186 12.7851C10.0928 12.7851 10.0035 12.8221 9.93759 12.888C9.87172 12.9539 9.83472 13.0432 9.83472 13.1364C9.83472 13.2295 9.87172 13.3189 9.93759 13.3847C10.0035 13.4506 10.0928 13.4876 10.186 13.4876H12.9959C13.089 13.4876 13.1784 13.4506 13.2442 13.3847C13.3101 13.3189 13.3471 13.2295 13.3471 13.1364C13.3471 13.0432 13.3101 12.9539 13.2442 12.888C13.1784 12.8221 13.089 12.7851 12.9959 12.7851H10.186Z" fill="#F36F6F"/>
<path fill-rule="evenodd" clip-rule="evenodd" d="M15.4546 13.1364C15.4546 15.2701 13.7247 17 11.5909 17C9.45715 17 7.72729 15.2701 7.72729 13.1364C7.72729 11.0026 9.45715 9.27273 11.5909 9.27273C13.7247 9.27273 15.4546 11.0026 15.4546 13.1364ZM14.7521 13.1364C14.7521 13.5515 14.6703 13.9626 14.5115 14.3461C14.3526 14.7296 14.1197 15.0781 13.8262 15.3716C13.5327 15.6652 13.1842 15.898 12.8007 16.0569C12.4171 16.2158 12.0061 16.2975 11.5909 16.2975C11.1758 16.2975 10.7647 16.2158 10.3812 16.0569C9.99768 15.898 9.6492 15.6652 9.35566 15.3716C9.06211 15.0781 8.82927 14.7296 8.6704 14.3461C8.51154 13.9626 8.42977 13.5515 8.42977 13.1364C8.42977 12.298 8.76282 11.4939 9.35566 10.9011C9.94849 10.3083 10.7525 9.97521 11.5909 9.97521C12.4293 9.97521 13.2334 10.3083 13.8262 10.9011C14.419 11.4939 14.7521 12.298 14.7521 13.1364Z" fill="#F36F6F"/>
</svg>
